<svg xmlns="http://www.w3.org/2000/svg" width="50" height="50" viewBox="0 0 50 50" fill="none">
  <path d="M49.2619 15.7838V6.62267C49.2619 5.00927 48.6222 3.46169 47.4831 2.31913C46.344 1.17658 44.7983 0.532269 43.185 0.527429L34.0238 0.5M49.2619 34.0695V43.2124C49.2619 44.8289 48.6197 46.3793 47.4767 47.5224C46.3336 48.6654 44.7832 49.3076 43.1667 49.3076H34.0238M15.7381 0.5L6.57695 0.530476C4.96357 0.535316 3.41791 1.17963 2.27878 2.32218C1.13966 3.46474 0.499993 5.01232 0.5 6.62571V15.7838M15.7381 49.3076H6.59524C4.97868 49.3076 3.42833 48.6654 2.28525 47.5224C1.14217 46.3793 0.5 44.8289 0.5 43.2124V34.0695" stroke="currentColor" stroke-linecap="round" stroke-linejoin="round"/>
</svg>